<svg width="145" height="145" viewBox="0 0 145 145" fill="none" xmlns="http://www.w3.org/2000/svg">
<mask id="mask0_516_2" style="mask-type:luminance" maskUnits="userSpaceOnUse" x="19" y="8" width="107" height="127">
<path d="M42.2917 63.4375V36.25C42.2917 34.6477 42.9283 33.111 44.0613 31.9779C45.1943 30.8449 46.7311 30.2084 48.3334 30.2084H57.3959C58.9983 30.2084 60.535 30.8449 61.668 31.9779C62.801 33.111 63.4376 34.6477 63.4376 36.25V66.4584V18.125C63.4376 16.5227 64.0741 14.986 65.2071 13.8529C66.3402 12.7199 67.8769 12.0834 69.4792 12.0834H78.5417C80.1441 12.0834 81.6808 12.7199 82.8138 13.8529C83.9469 14.986 84.5834 16.5227 84.5834 18.125V66.4584V42.2917C84.5834 40.6894 85.2199 39.1526 86.353 38.0196C87.486 36.8866 89.0227 36.25 90.6251 36.25H99.6876C101.29 36.25 102.827 36.8866 103.96 38.0196C105.093 39.1526 105.729 40.6894 105.729 42.2917V63.4375" stroke="white" stroke-width="8" stroke-linecap="round" stroke-linejoin="round"/>
<path d="M21.1459 54.375C21.1459 54.375 42.2917 69.4792 72.5 69.4792C102.708 69.4792 123.854 54.375 123.854 54.375L109.3 132.917H35.7002L21.1459 54.375Z" fill="white" stroke="white" stroke-width="4" stroke-linecap="round" stroke-linejoin="round"/>
<path d="M72.5 108.75C82.5102 108.75 90.625 104.693 90.625 99.6875C90.625 94.6824 82.5102 90.625 72.5 90.625C62.4898 90.625 54.375 94.6824 54.375 99.6875C54.375 104.693 62.4898 108.75 72.5 108.75Z" fill="black" stroke="black" stroke-width="4"/>
</mask>
<g mask="url(#mask0_516_2)">
<path d="M0 0H145V145H0V0Z" fill="#232323"/>
</g>
</svg>
