<svg width="150" height="150" viewBox="0 0 150 150" fill="none" xmlns="http://www.w3.org/2000/svg">
<g clip-path="url(#clip0_10_123)">
<path d="M125.25 54.4375V25H95.875L75 4.3125L54.4375 25H25V54.4375L4.3125 75L25 95.875V125.25H54.4375L75 145.938L95.875 125.25H125.25V95.875L145.938 75L125.25 54.4375ZM55.1875 44.0625C61.3125 44.0625 66.25 49 66.25 55.1875C66.25 58.1215 65.0845 60.9353 63.0099 63.0099C60.9353 65.0845 58.1215 66.25 55.1875 66.25C49 66.25 44.0625 61.3125 44.0625 55.1875C44.0625 49 49 44.0625 55.1875 44.0625ZM95.125 106.25C89 106.25 84.0625 101.25 84.0625 95.125C84.0625 92.191 85.228 89.3773 87.3026 87.3026C89.3773 85.228 92.191 84.0625 95.125 84.0625C101.25 84.0625 106.25 89 106.25 95.125C106.25 98.0755 105.078 100.905 102.992 102.992C100.905 105.078 98.0755 106.25 95.125 106.25ZM53.125 106.438L43.75 97.0625L97.0625 43.75L106.438 53.125L53.125 106.438Z" fill="#232323"/>
</g>
<defs>
<clipPath id="clip0_10_123">
<rect width="150" height="150" fill="white"/>
</clipPath>
</defs>
</svg>
